solid T_MESH
 facet normal -0.582249 -0.326754 0.744458
  outer loop
   vertex 196.561371 318.130859 12.848325
   vertex 194.891068 313.562958 9.537037
   vertex 196.568619 315.877777 11.865080
  endloop
 endfacet
 facet normal -0.736908 -0.198883 0.646074
  outer loop
   vertex 196.561371 318.130859 12.848325
   vertex 192.450974 315.600006 7.380952
   vertex 194.891068 313.562958 9.537037
  endloop
 endfacet
 facet normal -0.822786 0.155100 0.546779
  outer loop
   vertex 196.561371 318.130859 12.848325
   vertex 192.973846 318.933350 7.222222
   vertex 192.450974 315.600006 7.380952
  endloop
 endfacet
 facet normal -0.461073 -0.870970 0.169774
  outer loop
   vertex 196.561371 318.130859 12.848325
   vertex 194.782135 319.211121 13.558201
   vertex 192.973846 318.933350 7.222222
  endloop
 endfacet
 facet normal -0.304534 -0.943822 0.128291
  outer loop
   vertex 194.782135 319.211121 13.558201
   vertex 192.363831 320.075317 14.175485
   vertex 192.973846 318.933350 7.222222
  endloop
 endfacet
 facet normal -0.490477 -0.865794 0.099163
  outer loop
   vertex 192.363831 320.075317 14.175485
   vertex 191.427017 320.044464 9.272487
   vertex 192.973846 318.933350 7.222222
  endloop
 endfacet
 facet normal 0.274875 -0.960356 -0.046477
  outer loop
   vertex 192.363831 320.075317 14.175485
   vertex 188.464050 319.211121 8.968254
   vertex 191.427017 320.044464 9.272487
  endloop
 endfacet
 facet normal 0.333287 -0.938137 -0.093910
  outer loop
   vertex 192.363831 320.075317 14.175485
   vertex 186.067535 317.914825 13.412699
   vertex 188.464050 319.211121 8.968254
  endloop
 endfacet
 facet normal 0.825320 -0.474078 0.306753
  outer loop
   vertex 186.067535 317.914825 13.412699
   vertex 185.130722 316.155548 13.214286
   vertex 188.464050 319.211121 8.968254
  endloop
 endfacet
 facet normal 0.837905 -0.403872 0.367155
  outer loop
   vertex 185.130722 316.155548 13.214286
   vertex 187.352936 317.266663 9.365079
   vertex 188.464050 319.211121 8.968254
  endloop
 endfacet
 facet normal 0.697803 0.471726 0.539023
  outer loop
   vertex 185.130722 316.155548 13.214286
   vertex 187.026138 315.785187 11.084656
   vertex 187.352936 317.266663 9.365079
  endloop
 endfacet
 facet normal 0.074025 0.133207 -0.988320
  outer loop
   vertex 192.363831 320.075317 14.175485
   vertex 190.032684 318.655548 13.809524
   vertex 186.067535 317.914825 13.412699
  endloop
 endfacet
 facet normal 0.708890 0.688871 -0.151430
  outer loop
   vertex 192.450974 315.600006 7.380952
   vertex 193.453156 315.013580 9.404762
   vertex 194.891068 313.562958 9.537037
  endloop
 endfacet
 facet normal 0.118817 0.659969 -0.741838
  outer loop
   vertex 194.891068 313.562958 9.537037
   vertex 194.825699 315.106171 10.899471
   vertex 196.568619 315.877777 11.865080
  endloop
 endfacet
 facet normal 0.003825 0.456240 -0.889849
  outer loop
   vertex 190.032684 318.655548 13.809524
   vertex 187.919388 316.248169 12.566137
   vertex 186.067535 317.914825 13.412699
  endloop
 endfacet
 facet normal -0.199694 0.582320 -0.788052
  outer loop
   vertex 190.032684 318.655548 13.809524
   vertex 191.136520 316.587646 12.001763
   vertex 187.919388 316.248169 12.566137
  endloop
 endfacet
 facet normal -0.033407 0.509857 -0.859610
  outer loop
   vertex 194.782135 319.211121 13.558201
   vertex 196.561371 318.130859 12.848325
   vertex 194.789398 316.988892 12.239859
  endloop
 endfacet
 facet normal -0.568303 0.698109 0.435518
  outer loop
   vertex 189.466232 315.600006 9.140211
   vertex 188.594772 313.933350 10.674603
   vertex 190.359482 315.229645 10.899471
  endloop
 endfacet
 facet normal -0.039044 0.509739 -0.859443
  outer loop
   vertex 194.782135 319.211121 13.558201
   vertex 194.789398 316.988892 12.239859
   vertex 192.610748 317.914825 12.888007
  endloop
 endfacet
 facet normal 0.458646 0.145025 0.876705
  outer loop
   vertex 188.464050 319.211121 8.968254
   vertex 190.889618 316.711121 8.112875
   vertex 190.751633 318.933350 7.817460
  endloop
 endfacet
 facet normal 0.579405 0.610391 -0.540104
  outer loop
   vertex 187.026138 315.785187 11.084656
   vertex 187.919388 316.248169 12.566137
   vertex 188.594772 313.933350 10.674603
  endloop
 endfacet
 facet normal 0.294783 0.819357 0.491687
  outer loop
   vertex 190.359482 315.229645 10.899471
   vertex 193.453156 315.013580 9.404762
   vertex 190.889618 316.711121 8.112875
  endloop
 endfacet
 facet normal -0.037940 0.508344 -0.860318
  outer loop
   vertex 194.782135 319.211121 13.558201
   vertex 192.610748 317.914825 12.888007
   vertex 192.363831 320.075317 14.175485
  endloop
 endfacet
 facet normal -0.303439 0.548272 -0.779309
  outer loop
   vertex 190.359482 315.229645 10.899471
   vertex 188.594772 313.933350 10.674603
   vertex 187.919388 316.248169 12.566137
  endloop
 endfacet
 facet normal 0.530095 0.589982 0.609032
  outer loop
   vertex 189.466232 315.600006 9.140211
   vertex 187.352936 317.266663 9.365079
   vertex 187.026138 315.785187 11.084656
  endloop
 endfacet
 facet normal -0.097211 0.625129 -0.774444
  outer loop
   vertex 192.610748 317.914825 12.888007
   vertex 191.136520 316.587646 12.001763
   vertex 190.032684 318.655548 13.809524
  endloop
 endfacet
 facet normal 0.566203 0.823203 -0.041847
  outer loop
   vertex 190.889618 316.711121 8.112875
   vertex 193.453156 315.013580 9.404762
   vertex 192.450974 315.600006 7.380952
  endloop
 endfacet
 facet normal -0.195526 0.683069 -0.703695
  outer loop
   vertex 191.136520 316.587646 12.001763
   vertex 190.359482 315.229645 10.899471
   vertex 187.919388 316.248169 12.566137
  endloop
 endfacet
 facet normal -0.043151 0.644400 -0.763470
  outer loop
   vertex 190.359482 315.229645 10.899471
   vertex 191.136520 316.587646 12.001763
   vertex 193.017426 315.877777 11.296296
  endloop
 endfacet
 facet normal 0.056740 0.399481 -0.914984
  outer loop
   vertex 196.568619 315.877777 11.865080
   vertex 194.789398 316.988892 12.239859
   vertex 196.561371 318.130859 12.848325
  endloop
 endfacet
 facet normal 0.600088 0.348925 0.719823
  outer loop
   vertex 187.026138 315.785187 11.084656
   vertex 188.594772 313.933350 10.674603
   vertex 189.466232 315.600006 9.140211
  endloop
 endfacet
 facet normal 0.148821 -0.818025 0.555597
  outer loop
   vertex 190.751633 318.933350 7.817460
   vertex 192.973846 318.933350 7.222222
   vertex 191.427017 320.044464 9.272487
  endloop
 endfacet
 facet normal 0.029661 0.619107 -0.784746
  outer loop
   vertex 193.017426 315.877777 11.296296
   vertex 192.610748 317.914825 12.888007
   vertex 194.789398 316.988892 12.239859
  endloop
 endfacet
 facet normal 0.180397 0.096676 0.978831
  outer loop
   vertex 187.352936 317.266663 9.365079
   vertex 189.466232 315.600006 9.140211
   vertex 188.464050 319.211121 8.968254
  endloop
 endfacet
 facet normal -0.089565 0.964741 -0.247492
  outer loop
   vertex 185.130722 316.155548 13.214286
   vertex 187.919388 316.248169 12.566137
   vertex 187.026138 315.785187 11.084656
  endloop
 endfacet
 facet normal 0.174652 -0.819978 0.545098
  outer loop
   vertex 188.464050 319.211121 8.968254
   vertex 190.751633 318.933350 7.817460
   vertex 191.427017 320.044464 9.272487
  endloop
 endfacet
 facet normal -0.387599 0.842479 0.374160
  outer loop
   vertex 190.359482 315.229645 10.899471
   vertex 190.889618 316.711121 8.112875
   vertex 189.466232 315.600006 9.140211
  endloop
 endfacet
 facet normal -0.150384 0.885671 -0.439284
  outer loop
   vertex 193.453156 315.013580 9.404762
   vertex 190.359482 315.229645 10.899471
   vertex 193.017426 315.877777 11.296296
  endloop
 endfacet
 facet normal -0.227604 0.227968 -0.946693
  outer loop
   vertex 187.919388 316.248169 12.566137
   vertex 185.130722 316.155548 13.214286
   vertex 186.067535 317.914825 13.412699
  endloop
 endfacet
 facet normal 0.411927 -0.021236 0.910970
  outer loop
   vertex 192.450974 315.600006 7.380952
   vertex 192.973846 318.933350 7.222222
   vertex 190.889618 316.711121 8.112875
  endloop
 endfacet
 facet normal 0.256078 0.142991 0.956022
  outer loop
   vertex 190.751633 318.933350 7.817460
   vertex 190.889618 316.711121 8.112875
   vertex 192.973846 318.933350 7.222222
  endloop
 endfacet
 facet normal -0.068730 0.605697 -0.792722
  outer loop
   vertex 193.017426 315.877777 11.296296
   vertex 191.136520 316.587646 12.001763
   vertex 192.610748 317.914825 12.888007
  endloop
 endfacet
 facet normal 0.189030 0.571933 -0.798223
  outer loop
   vertex 196.568619 315.877777 11.865080
   vertex 194.825699 315.106171 10.899471
   vertex 194.789398 316.988892 12.239859
  endloop
 endfacet
 facet normal 0.482827 0.174858 0.858081
  outer loop
   vertex 189.466232 315.600006 9.140211
   vertex 190.889618 316.711121 8.112875
   vertex 188.464050 319.211121 8.968254
  endloop
 endfacet
 facet normal 0.069059 0.579472 -0.812061
  outer loop
   vertex 194.825699 315.106171 10.899471
   vertex 193.017426 315.877777 11.296296
   vertex 194.789398 316.988892 12.239859
  endloop
 endfacet
 facet normal 0.306203 0.890569 -0.336343
  outer loop
   vertex 193.017426 315.877777 11.296296
   vertex 194.825699 315.106171 10.899471
   vertex 193.453156 315.013580 9.404762
  endloop
 endfacet
 facet normal 0.601565 0.542857 -0.586025
  outer loop
   vertex 194.891068 313.562958 9.537037
   vertex 193.453156 315.013580 9.404762
   vertex 194.825699 315.106171 10.899471
  endloop
 endfacet
 facet normal -0.164720 0.490963 -0.855466
  outer loop
   vertex 190.032684 318.655548 13.809524
   vertex 192.363831 320.075317 14.175485
   vertex 192.610748 317.914825 12.888007
  endloop
 endfacet
endsolid T_MESH
